<svg width="600" height="600" viewBox="0 0 600 600" fill="none" xmlns="http://www.w3.org/2000/svg">
<path d="M71.8147 282.716C56.0618 273.17 56.0618 257.694 71.8147 248.148L128.861 213.58C144.614 204.034 170.154 204.034 185.907 213.58L385.569 334.568C401.322 344.114 401.322 359.591 385.569 369.136L328.523 403.704C312.77 413.25 287.23 413.25 271.477 403.704L71.8147 282.716Z" fill="#00E696"/>
<path d="M214.431 196.296C198.678 186.75 198.678 171.273 214.431 161.727L271.477 127.159C287.23 117.614 312.77 117.614 328.523 127.159C344.276 136.705 344.276 152.182 328.523 161.727L242.954 213.58L214.431 196.296Z" fill="#00E696"/>
<path d="M242.954 213.58L328.523 161.727C344.276 152.182 369.817 152.182 385.569 161.727C401.322 171.273 401.322 186.75 385.569 196.296L300 248.148L242.954 213.58Z" fill="#00E696"/>
<path d="M399.831 222.222L414.093 213.58C429.846 204.034 455.386 204.034 471.139 213.58L528.185 248.148C543.938 257.694 543.938 273.17 528.185 282.716L513.924 291.358H456.877L485.401 308.642L471.139 317.284C455.386 326.83 429.846 326.83 414.093 317.284L328.523 265.432L371.308 239.506H428.354L399.831 222.222Z" fill="#00E696"/>
<path d="M71.8147 317.284C56.0618 326.83 56.0618 342.306 71.8147 351.852L271.477 472.841C287.23 482.386 312.77 482.386 328.523 472.841L528.185 351.852C543.938 342.306 543.938 326.83 528.185 317.284L328.523 438.273C312.77 447.818 287.23 447.818 271.477 438.273L71.8147 317.284Z" fill="#00E696"/>
</svg>
