<svg width="30" height="30" viewBox="0 0 30 30" fill="none" xmlns="http://www.w3.org/2000/svg">
<path d="M1.80804 14.5391C0.809632 13.8938 0.31043 13.5711 0.123392 13.199C-0.0411307 12.8717 -0.0411307 12.5192 0.123392 12.1919C0.31043 11.8198 0.809632 11.4972 1.80804 10.8518L3.23419 9.93001C4.2326 9.28467 4.7318 8.96201 5.30744 8.84111C5.81379 8.73477 6.35923 8.73477 6.86558 8.84111C7.44122 8.96201 7.94042 9.28467 8.93883 9.93001L19.2785 16.6132C20.2769 17.2585 20.7761 17.5812 20.9631 17.9533C21.1276 18.2805 21.1276 18.6331 20.9631 18.9604C20.7761 19.3324 20.2769 19.6551 19.2785 20.3004L17.8523 21.2223C16.8539 21.8676 16.3547 22.1903 15.7791 22.3112C15.2727 22.4175 14.7273 22.4175 14.2209 22.3112C13.6453 22.1903 13.1461 21.8676 12.1477 21.2223L1.80804 14.5391Z" fill="#6699FF"/>
<path d="M15 11.5432L20.3481 8.08637C21.3326 7.44999 21.3326 6.41821 20.3481 5.78183C19.3635 5.14545 17.7673 5.14545 16.7827 5.78183C17.7673 5.14545 17.7673 4.11367 16.7827 3.47729C15.7981 2.8409 14.2019 2.8409 13.2173 3.47729L10.7215 5.09047C9.72312 5.7358 9.22392 6.05846 9.03688 6.43054C8.87236 6.75783 8.87236 7.11038 9.03688 7.43766C9.22392 7.80974 9.72312 8.1324 10.7215 8.77773L15 11.5432Z" fill="#6699FF"/>
<path d="M17.4958 12.2345L16.7827 12.6955L21.0612 15.4609C22.0596 16.1062 22.5588 16.4289 23.1344 16.5498C23.6408 16.6561 24.1862 16.6561 24.6926 16.5498C25.2682 16.4289 25.7674 16.1062 26.7658 15.4609L27.4789 15L25.6962 13.8477C26.6807 14.4841 28.277 14.4841 29.2616 13.8477C30.2461 13.2113 30.2461 12.1796 29.2616 11.5432L26.7658 9.93001C25.7674 9.28467 25.2682 8.96201 24.6926 8.84111C24.1862 8.73477 23.6408 8.73477 23.1344 8.84111C22.5588 8.96201 22.0596 9.28467 21.0612 9.93001L20.3481 10.3909L23.2004 12.2345C22.202 11.5892 21.7028 11.2666 21.1272 11.1457C20.6208 11.0393 20.0754 11.0393 19.569 11.1457C18.9934 11.2665 18.4942 11.5892 17.4958 12.2345Z" fill="#6699FF"/>
<path d="M0.770701 16.1523C1.03179 16.3419 1.37239 16.562 1.80804 16.8436L12.1477 23.5268C13.1461 24.1721 13.6453 24.4948 14.2209 24.6157C14.7273 24.722 15.2727 24.722 15.7791 24.6157C16.3547 24.4948 16.8539 24.1721 17.8523 23.5268L28.192 16.8436C28.6276 16.562 28.9682 16.3419 29.2293 16.1523C29.5666 16.3972 29.7712 16.5913 29.8766 16.801C30.0411 17.1283 30.0411 17.4808 29.8766 17.8081C29.6896 18.1802 29.1904 18.5028 28.192 19.1482L17.8523 25.8313C16.8539 26.4767 16.3547 26.7993 15.7791 26.9202C15.2727 27.0266 14.7273 27.0266 14.2209 26.9202C13.6453 26.7993 13.1461 26.4767 12.1477 25.8313L1.80804 19.1482C0.809632 18.5028 0.31043 18.1802 0.123392 17.8081C-0.0411307 17.4808 -0.0411307 17.1283 0.123392 16.801C0.228818 16.5913 0.433422 16.3972 0.770701 16.1523Z" fill="#6699FF"/>
</svg>
